<svg width="346" height="75" xmlns="http://www.w3.org/2000/svg">
 <defs>
  <path d="m161.412,8.5c-43,0 -45,66.5 0,66.5c45,0 43,-66.5 0,-66.5zm0,10c-30.5,0 -30.5,46.5 0,46.5c30.5,0 30.5,-46.5 0,-46.5z" fill-rule="evenodd" id="path0_fill"/>
  <path d="m205.412,16l0,53c0,5.5 10,5.5 10,0l0,-53c0,-5.5 -10,-5.5 -10,0z" id="path1_fill"/>
  <path d="m231.412,16l-0.5,53c0,5 10.5,5 10.5,0l0,-17l5,0l21,18.5c6.5,6 14.015,-1.3221 8,-7l-11.5,-10c-2.5,-2.5 -1.5,-3.0359 -0.5,-3.5c7.552,-3.5049 11.5,-9 11.5,-19.5c0,-10.7909 -10.5,-18.5 -15,-18.5l-24.5,0c-4,0 -4,4 -4,4zm10,25l0,-19l11.5,0c15,0 14.849,19 -0.5,19l-11,0z" fill-rule="evenodd" id="path2_fill"/>
  <path d="m311.412,15.5c2.5,-4.5 5.907,-4.5 8.5,0l25.5,50c2.907,6.5 -7.593,9.5 -10.5,4l-5,-10l-31,0l-7,11c-3.093,5 -12.093,0.5 -9.5,-4l29,-51zm-5.5,30l8,-14.5c1.171,-1.799 1.828,-1.9775 3,0l7,15c1.5,3 1,3 -4,3l-11,0c-4,0 -4.5,-1 -3,-3.5z" fill-rule="evenodd" id="path3_fill"/>
  <path d="m44.412,6.00005l-42.50015,55.99995c-2.59271,3.5 -2.50514,6.9022 -0.00013,9c2.50502,2.0978 5.90755,0.5 8.50038,-2.5l40.4998,-51.9999l15.0001,39.9999c0,0 1.4999,4.5 5.5,5c4,0.5 6.5,-4 6.5,-4l15.4999,-26.9999l19.5001,38c0,0 3.625,6.5 8,4c4.375,-2.5001 1.5,-8.0001 1.5,-8.0001l-20.5,-45c0,0 -3,-7 -7,-7c-4,0 -7,5.5 -7,5.5l-15.0001,24.5l-13.5,-36c0,0 -2,-6.49996 -6.5,-6.5c-4.5,-0.00004 -8.4999,6.00005 -8.4999,6.00005z" id="path4_fill"/>
 </defs>
 <g>
  <title>background</title>
  <rect fill="none" id="canvas_background" height="402" width="582" y="-1" x="-1"/>
 </g>
 <g>
  <title>Layer 1</title>
  <text stroke="#000" transform="matrix(5.745164269565769,0,0,2.7284255061008054,-36.92326665189254,-3.4087478957912327) " xml:space="preserve" text-anchor="start" font-family="Helvetica, Arial, sans-serif" font-size="24" id="svg_7" y="23.281801" x="6.538577" stroke-width="0" fill="#ffffff">Atella</text>
 </g>
</svg>